<?xml version="1.0" standalone="no"?>
<!DOCTYPE svg PUBLIC "-//W3C//DTD SVG 1.1//EN" "http://www.w3.org/Graphics/SVG/1.1/DTD/svg11.dtd" >
<svg xmlns="http://www.w3.org/2000/svg">
<metadata>Generated by IcoMoon</metadata>
<defs>
<font id="icomoon" horiz-adv-x="1024">
<font-face units-per-em="1024" ascent="960" descent="-64" />
<missing-glyph horiz-adv-x="1024" />
<glyph unicode="&#x20;" horiz-adv-x="512" d="" />
<glyph unicode="&#xe900;" glyph-name="handshake" d="M1003.571 663.082l-208.445 208.445c-13.197 13.197-30.741 20.464-49.404 20.464s-36.206-7.267-49.4-20.464l-48.985-48.981c-7.538-7.538-12.911-16.405-16.281-25.837l-229.192 41.033c-0.015 0.004-0.035 0.004-0.050 0.008-103.053 20.456-203.669-46.541-224.451-149.605l-10.571-52.437c-11.675-57.906 25.941-114.511 83.847-126.186 57.91-11.667 114.515 25.941 126.19 83.847l6.461 32.065 102.778-8.987 317.045-317.045c9.851-9.851 9.847-25.879 0-35.73-9.847-9.847-25.876-9.851-35.726 0l-130.303 130.303c-9.076 9.076-23.795 9.076-32.867 0-9.076-9.076-9.076-23.792 0-32.867l130.303-130.303c4.772-4.772 7.399-11.117 7.399-17.865s-2.626-13.089-7.399-17.861c-9.854-9.851-25.879-9.847-35.726 0l-130.303 130.303c-9.076 9.076-23.795 9.076-32.867 0-9.076-9.076-9.076-23.792 0-32.867l130.303-130.303c9.851-9.847 9.851-25.876 0-35.726-4.772-4.772-11.117-7.399-17.861-7.399-6.748 0-13.093 2.626-17.865 7.399l-130.303 130.303c-9.076 9.076-23.795 9.076-32.867 0-9.076-9.076-9.076-23.792 0-32.867l130.303-130.303c9.851-9.851 9.847-25.879 0-35.73-9.847-9.847-25.876-9.851-35.726 0l-521.93 521.922c-9.076 9.076-23.795 9.076-32.867 0-9.076-9.076-9.076-23.792 0-32.867l127.142-127.142-36.524-36.524c-11.958-11.958-18.547-27.859-18.547-44.775s6.585-32.817 18.547-44.775l11.919-11.919c10.455-10.455 23.923-16.8 38.445-18.233 1.433-14.522 7.778-27.99 18.233-38.441l11.919-11.923c10.734-10.734 24.396-16.788 38.438-18.186 1.422-14.538 7.774-28.025 18.241-38.488l11.919-11.919c10.455-10.455 23.923-16.8 38.445-18.233 1.433-14.522 7.778-27.99 18.233-38.445l11.919-11.919c12.345-12.345 28.56-18.516 44.775-18.516s32.43 6.171 44.775 18.516l36.524 36.524 87.524-87.524c13.554-13.554 31.57-21.014 50.732-21.014s37.182 7.464 50.732 21.014c12.837 12.837 20.127 29.699 20.867 47.726 18.032 0.74 34.889 8.030 47.73 20.867 13.232 13.232 20.123 30.388 20.84 47.757 17.365 0.717 34.525 7.608 47.753 20.836 13.232 13.232 20.123 30.388 20.84 47.757 17.369 0.717 34.529 7.608 47.757 20.84 27.975 27.975 27.975 73.49 0 101.465l-32.209 32.209 199.795 199.795c27.235 27.243 27.235 71.568-0.004 98.807zM130.296 326.6c-6.566 6.566-6.566 17.245 0 23.811l34.25 34.25 35.73-35.73-34.25-34.25c-6.562-6.566-17.249-6.562-23.811 0l-11.919 11.919zM198.893 258.003c-6.566 6.566-6.566 17.245 0 23.807l34.25 34.25 35.73-35.73-34.246-34.25c-6.566-6.562-17.253-6.566-23.811 0l-11.923 11.923zM267.486 189.406c-3.18 3.18-4.931 7.41-4.931 11.904s1.751 8.723 4.931 11.904l34.25 34.25 35.726-35.726-34.25-34.25c-6.562-6.562-17.245-6.562-23.807 0l-11.919 11.919zM371.813 108.889c-6.562-6.566-17.249-6.562-23.811 0l-11.919 11.919c-6.566 6.566-6.566 17.245 0 23.811l34.25 34.25 35.73-35.73-34.25-34.25zM770.904 397.351l-257.949 257.949c-3.866 3.866-8.963 6.244-14.41 6.717l-131.907 11.532c-0.686 0.062-1.367 0.089-2.041 0.089-10.958 0-20.561-7.728-22.765-18.651l-10.571-52.437c-6.608-32.778-38.635-54.067-71.437-47.463-15.878 3.2-29.563 12.395-38.527 25.887s-12.14 29.668-8.936 45.549l10.571 52.433c15.75 78.126 92.090 128.893 170.248 113.124 0.163-0.031 0.329-0.066 0.496-0.093l225.853-40.436 252.79-252.79-101.414-101.41zM970.7 597.146l-65.518-65.518-224.981 224.981c-4.416 4.416-6.848 10.288-6.848 16.536s2.433 12.117 6.848 16.536l48.985 48.985c4.416 4.416 10.288 6.848 16.532 6.848s12.117-2.433 16.536-6.848l208.445-208.445c4.416-4.416 6.848-10.288 6.848-16.536s-2.433-12.124-6.848-16.54zM937.681 604.456c0-12.836-10.406-23.241-23.241-23.241s-23.241 10.406-23.241 23.241c0 12.836 10.406 23.241 23.241 23.241s23.241-10.406 23.241-23.241z" />
<glyph unicode="&#xe901;" glyph-name="magnifier-tool" d="M767.998 576c0 212.059-171.933 384-383.996 384-212.059 0-384-171.942-384-384s171.942-383.992 384-383.992c212.063 0 383.996 171.933 383.996 383.992zM384.002 288.011c-158.813 0-287.998 129.174-287.998 287.987s129.185 287.998 287.998 287.998c158.809 0 288.004-129.185 288.004-287.998s-129.195-287.987-288.004-287.987zM995.866 99.865l-234.921 234.94c-35.003-54.438-81.327-100.738-135.765-135.744l234.94-234.94c37.506-37.498 98.318-37.498 135.744 0 37.508 37.437 37.508 98.248 0.002 135.744z" />
<glyph unicode="&#xe902;" glyph-name="profile" d="M510.319 388.308c151.331 0 274.075 122.746 274.075 274.075s-122.746 273.236-274.075 273.236-274.075-122.746-274.075-273.236 122.744-274.075 274.075-274.075zM510.319 864.157c110.975 0 201.774-90.797 201.774-201.774s-90.799-201.772-201.774-201.772-201.774 90.797-201.774 201.774 90.797 201.772 201.774 201.772zM36.151-39.619h951.699c20.177 0 36.151 15.973 36.151 36.151 0 189.163-153.852 343.856-343.856 343.856h-336.288c-189.163 0-343.856-153.852-343.856-343.856 0-20.177 15.973-36.151 36.151-36.151zM343.856 268.086h336.288c137.878 0 251.376-102.569 269.032-235.402h-874.352c17.655 131.992 131.154 235.402 269.032 235.402z" />
<glyph unicode="&#xe903;" glyph-name="shop" d="M727.513 408.141h-139.142c-38.081 0-69.048-30.967-69.048-69.048v-106.71c0-38.081 30.967-69.048 69.048-69.048h139.142c38.081 0 69.048 30.967 69.048 69.048v106.71c0 38.081-30.967 69.048-69.048 69.048zM746.344 232.383c0-10.462-8.579-18.831-18.831-18.831h-139.142c-10.462 0-18.831 8.579-18.831 18.831v106.71c0 10.462 8.579 18.831 18.831 18.831h139.142c10.462 0 18.831-8.579 18.831-18.831v-106.71zM1024 602.102c0 4.394-1.046 8.579-3.348 12.345l-152.324 267.822c-4.394 7.742-12.763 12.763-21.761 12.763h-669.345c-8.997 0-17.367-4.812-21.761-12.763l-152.114-267.822c-2.092-3.766-3.348-7.951-3.348-12.345 0-60.051 36.198-111.523 87.879-134.329v-441.697c0-13.81 11.299-25.108 25.108-25.108h138.723c0.209 0 0.418 0 0.628 0h194.589c0.209 0 0.418 0 0.628 0h463.248c13.81 0 25.108 11.299 25.108 25.108v438.558c0 1.046 0 1.883-0.209 2.72 51.89 22.807 88.298 74.488 88.298 134.748zM191.869 844.606h640.052l119.055-209.445h-877.953l118.846 209.445zM728.768 585.154c-7.951-45.195-47.497-79.51-94.993-79.51s-87.042 34.315-94.993 79.51h189.986zM485.427 585.154c-7.951-45.195-47.497-79.51-94.993-79.51s-87.042 34.315-95.202 79.51h190.195zM51.89 585.154h190.195c-7.951-45.195-47.706-79.51-95.202-79.51-47.497-0.209-87.042 34.315-94.993 79.51zM421.819 51.184h-144.373v270.96c0 19.668 15.902 35.779 35.779 35.779h73.023c19.668 0 35.779-15.902 35.779-35.779v-270.96h-0.209zM885.695 51.184h-413.659v270.96c0 47.287-38.499 85.996-85.996 85.996h-73.023c-47.287 0-85.996-38.499-85.996-85.996v-271.17h-88.925v404.453c2.929-0.209 5.859-0.209 8.788-0.209 50.635 0 95.412 25.736 121.775 64.863 26.364-39.127 71.14-64.863 121.775-64.863s95.202 25.736 121.775 64.863c26.364-39.127 71.14-64.863 121.566-64.863 50.635 0 95.202 25.736 121.566 64.863 26.364-39.127 71.14-64.863 121.775-64.863 2.929 0 5.649 0.209 8.579 0.209v-404.244zM877.116 505.435c-47.497 0-87.042 34.315-94.993 79.51h190.195c-8.16-44.986-47.706-79.51-95.202-79.51z" />
<glyph unicode="&#xe904;" glyph-name="loupe" d="M620 580c-11.040 0-20-8.96-20-20s8.96-20 20-20c11.040 0 20 8.96 20 20s-8.96 20-20 20zM1000.562 72.562l-266.96 266.96c43.49 65.508 66.398 141.368 66.398 220.478 0 220.56-179.44 400-400 400s-400-179.44-400-400 179.44-400 400-400c79.112 0 154.972 22.91 220.478 66.396l73.79-73.79c0.010-0.010 0.020-0.020 0.032-0.032l193.136-193.136c15.116-15.114 35.202-23.438 56.564-23.438s41.448 8.324 56.556 23.432c15.118 15.106 23.444 35.194 23.444 56.568s-8.326 41.462-23.438 56.562zM611.072 268.546c0-0.002-0.002-0.002-0.004-0.004-61.734-44.84-134.718-68.542-211.068-68.542-198.504 0-360 161.496-360 360s161.496 360 360 360 360-161.496 360-360c0-76.35-23.702-149.334-68.544-211.070-22.434-30.906-49.478-57.952-80.384-80.384zM653.032 250.414c20.7 16.934 39.622 35.856 56.554 56.554l56.742-56.742c-17.256-20.366-36.188-39.3-56.554-56.554l-56.742 56.742zM972.278-12.278c-7.56-7.56-17.602-11.722-28.278-11.722s-20.718 4.162-28.278 11.722l-177.59 177.59c20.254 17.382 39.174 36.3 56.554 56.554l177.596-177.596c7.556-7.548 11.718-17.586 11.718-28.27s-4.162-20.722-11.722-28.278zM400 880c-176.45 0-320-143.55-320-320s143.55-320 320-320 320 143.55 320 320-143.55 320-320 320zM400 280c-154.392 0-280 125.608-280 280s125.608 280 280 280 280-125.608 280-280-125.608-280-280-280zM624.13 645.854c-17.222 44.824-47.208 83.148-86.72 110.826-40.452 28.34-87.968 43.32-137.41 43.32-11.044 0-20-8.956-20-20s8.956-20 20-20c82.198 0 157.262-51.636 186.792-128.494 3.056-7.952 10.634-12.832 18.674-12.832 2.384 0 4.81 0.43 7.168 1.336 10.31 3.962 15.458 15.532 11.496 25.844z" />
<glyph unicode="&#xe905;" glyph-name="shop-1" d="M646.306-30.426c-18.543 0-33.574 15.031-33.574 33.574s15.031 33.574 33.574 33.574v33.574c-37.084 0-67.148-30.063-67.148-67.148s30.063-67.148 67.148-67.148c37.084 0 67.148 30.063 67.148 67.148h-33.574c0-18.543-15.033-33.574-33.574-33.574zM751.104 405.529c-1.335 0.334-2.703 0.504-4.079 0.504h-524.087l-30.384 121.587c-1.872 7.468-8.584 12.708-16.283 12.708h-36.66c-9.317 26.158-38.075 39.808-64.233 30.491-26.156-9.317-39.808-38.075-30.491-64.233 7.147-20.060 26.156-33.444 47.452-33.406 21.265 0.088 40.184 13.524 47.272 33.574h23.502l30.401-121.587 49.907-199.411v-149.034h33.574v67.148h402.885v-67.148h33.574v83.934c0 9.271-7.516 16.787-16.787 16.787h-419.672v33.574h419.672c7.699 0 14.412 5.24 16.283 12.708l50.361 201.443c2.252 8.994-3.213 18.111-12.206 20.362zM92.338 506.754c-9.271 0-16.787 7.516-16.787 16.787s7.516 16.787 16.787 16.787 16.787-7.516 16.787-16.787-7.516-16.787-16.787-16.787zM327.355 204.59h-54.037l-16.787 67.148h70.824v-67.148zM327.355 305.311h-79.217l-16.787 67.148h96.004v-67.148zM461.65 204.59h-100.721v67.148h100.721v-67.148zM461.65 305.311h-100.721v67.148h100.721v-67.148zM595.945 204.59h-100.721v67.148h100.721v-67.148zM595.945 305.311h-100.721v67.148h100.721v-67.148zM683.556 204.59h-54.037v67.148h70.824l-16.787-67.148zM708.736 305.311h-79.217v67.148h96.004l-16.787-67.148zM209.847-30.426c-18.543 0-33.574 15.031-33.574 33.574s15.031 33.574 33.574 33.574v33.574c-37.084 0-67.148-30.063-67.148-67.148s30.063-67.148 67.148-67.148 67.148 30.063 67.148 67.148h-33.574c0-18.543-15.033-33.574-33.574-33.574zM965.256 909.639h-362.362l-45.442 45.442c-3.148 3.148-7.416 4.919-11.868 4.919h-33.574c-4.453 0-8.721-1.771-11.868-4.919l-134.295-134.295c-6.553-6.555-6.553-17.181 0-23.737l50.361-50.361c6.555-6.553 17.181-6.553 23.737 0l38.492 38.492 38.492-38.492c3.148-3.148 7.416-4.919 11.868-4.919h436.459c9.271 0 16.787 7.516 16.787 16.787v134.295c0 9.271-7.516 16.787-16.787 16.787zM612.732 775.344h-76.985l-33.574 33.574 26.624 26.624 21.705-21.705 23.737 23.737-33.574 33.574c-6.555 6.553-17.181 6.553-23.737 0l-88.853-88.853-26.624 26.624 117.508 117.508h19.674l45.442-45.442c3.148-3.148 7.416-4.919 11.868-4.919h16.787v-100.721zM948.47 775.344h-302.164v100.721h302.164v-100.721zM349.060 427.738l23.737 23.737-55.279 55.279h144.132v-67.148h33.574v67.148h144.132l-55.279-55.279 23.737-23.737 83.934 83.934c6.553 6.555 6.553 17.181 0 23.737l-201.443 201.443c-6.555 6.553-17.181 6.553-23.737 0l-201.443-201.443c-6.553-6.555-6.553-17.181 0-23.737l83.934-83.934zM495.224 684.46l144.132-144.132h-144.132v144.132zM461.65 684.46v-144.132h-144.132l144.132 144.132z" />
<glyph unicode="&#xe906;" glyph-name="auricular-phone-symbol-in-a-circle" d="M512 896c247 0 448-201 448-448s-201-448-448-448-448 201-448 448 201 448 448 448zM512 960c-282.75 0-512-229.25-512-512s229.25-512 512-512 512 229.25 512 512-229.25 512-512 512v0zM797.438 276.812l-2.876 8.75c-6.75 20.124-29 41.124-49.5 46.75l-75.686 20.688c-20.5 5.562-49.75-1.938-64.81-17l-27.376-27.376c-99.5 26.938-177.562 105-204.438 204.5l27.376 27.376c15 15 22.5 44.25 16.938 64.812l-20.628 75.688c-5.562 20.5-26.688 42.75-46.812 49.5l-8.626 2.876c-20.188 6.75-49-0.062-64-15.126l-41-41c-7.312-7.25-12-28.062-12-28.126-1.376-130.126 49.626-255.438 141.626-347.5 91.75-91.75 216.626-142.69 346.312-141.562 0.688 0 22.126 4.562 29.438 11.876l41 41c15 14.938 21.748 43.75 15.062 63.874z" />
<glyph unicode="&#xe907;" glyph-name="clipboard-with-a-check-mark" d="M808.075 895.419h-162.978v-66.039h132.147c18.214 0 32.901-14.755 32.901-32.969v-761.437c0-18.146-14.687-32.969-32.901-32.969h-530.316c-18.316 0-33.138 14.822-33.138 32.969v761.437c0 18.214 14.822 32.969 33.138 32.969h134.080v66.039h-167.218c-36.395 0-66.039-29.475-66.039-66.073v-827.374c0-36.496 29.645-65.972 66.039-65.972h594.286c36.496 0 68.176 29.475 68.176 65.972v827.374c0 36.598-31.68 66.073-68.176 66.073zM357.705 791.696c-14.11 0-25.642-7.869-25.642-17.468 0-9.667 0-35.072 0-35.072h359.74c0 0 0 25.405 0 35.072 0 9.565-11.532 17.468-25.507 17.468h-76.825v143.136c-78.657 55.966-155.347 1.119-155.347 1.119l0.339-144.255h-76.758zM757.367 492.569l-265.718-265.582c-6.648-6.682-17.536-6.682-24.116 0l-11.193 11.057-24.998 25.1-0.407 0.611-114.95 115.662c-6.58 6.716-6.58 17.536 0 24.184l36.225 36.157c6.716 6.716 17.536 6.716 24.218 0l103.316-104.062 217.214 217.282c6.682 6.648 17.502 6.648 24.15 0l36.225-36.259c6.648-6.614 6.648-17.468 0.034-24.15z" />
<glyph unicode="&#xe908;" glyph-name="shield" d="M945.23 960h-866.46c-10.876 0-19.692-8.816-19.692-19.692v-339.304c0-142.834 42.082-281.014 121.694-399.6 79.614-118.588 191.572-209.854 323.772-263.936 2.388-0.978 4.924-1.468 7.456-1.468s5.066 0.488 7.456 1.468c132.2 54.082 244.156 145.348 323.774 263.936 79.612 118.588 121.694 256.768 121.694 399.6v339.304c0 10.876-8.818 19.692-19.694 19.692zM925.538 601.004c0-273.618-162.050-517.658-413.538-623.984-251.488 106.328-413.538 350.364-413.538 623.984v319.612h827.076v-319.612zM866.462 881.23h-708.924c-10.876 0-19.692-8.816-19.692-19.692v-260.536c0-127.142 37.456-250.138 108.324-355.694 64.3-95.774 153.318-172.336 257.436-221.408 2.658-1.252 5.528-1.878 8.394-1.878 2.868 0 5.738 0.626 8.394 1.878 104.118 49.072 193.136 125.634 257.436 221.408 70.866 105.556 108.324 228.552 108.324 355.694v260.536c0 10.876-8.816 19.692-19.692 19.692zM846.77 601.004c0-119.294-35.146-234.7-101.64-333.744-58.596-87.28-139.058-157.548-233.13-203.696-94.072 46.146-174.534 116.416-233.13 203.696-66.494 99.042-101.64 214.45-101.64 333.744v142.382h98.462c10.876 0 19.692 8.816 19.692 19.692s-8.816 19.692-19.692 19.692h-98.462v59.076h669.538v-240.842zM720.868 541.902l-70.086 70.086c-7.688 7.69-20.158 7.688-27.848 0l-138.782-138.782-83.082 83.084c-7.69 7.69-20.16 7.69-27.85 0l-70.086-70.086c-3.692-3.692-5.768-8.702-5.768-13.924s2.076-10.232 5.768-13.924l167.096-167.096c3.846-3.846 8.886-5.768 13.924-5.768s10.080 1.922 13.924 5.768l222.792 222.792c3.692 3.692 5.768 8.702 5.768 13.924-0.002 5.224-2.078 10.234-5.77 13.926zM484.152 333.034l-139.246 139.244 42.238 42.24 83.082-83.084c7.69-7.69 20.16-7.69 27.85 0l138.782 138.782 42.238-42.238-194.944-194.944zM354.068 766.916c-0.236 1.26-0.63 2.5-1.122 3.682-0.492 1.202-1.102 2.344-1.812 3.406-0.708 1.084-1.536 2.088-2.442 2.994s-1.91 1.732-2.994 2.442c-1.064 0.708-2.206 1.32-3.406 1.812-1.182 0.492-2.422 0.886-3.682 1.122-2.54 0.512-5.14 0.512-7.68 0-1.26-0.236-2.5-0.63-3.682-1.122-1.202-0.492-2.344-1.102-3.406-1.812-1.084-0.708-2.088-1.536-2.994-2.442s-1.732-1.91-2.442-2.994c-0.708-1.064-1.32-2.206-1.812-3.406-0.492-1.182-0.886-2.422-1.122-3.682-0.256-1.26-0.394-2.56-0.394-3.84s0.138-2.58 0.394-3.84c0.236-1.26 0.63-2.5 1.122-3.702 0.492-1.182 1.102-2.324 1.812-3.388 0.708-1.084 1.536-2.088 2.442-2.994s1.91-1.732 2.994-2.442c1.064-0.708 2.206-1.32 3.406-1.812 1.182-0.492 2.422-0.886 3.682-1.142s2.56-0.374 3.84-0.374c1.28 0 2.58 0.118 3.84 0.374s2.5 0.65 3.682 1.142c1.202 0.492 2.344 1.102 3.406 1.812 1.084 0.708 2.088 1.536 2.994 2.442s1.732 1.91 2.442 2.994c0.708 1.064 1.32 2.206 1.812 3.388 0.492 1.202 0.886 2.442 1.122 3.702 0.256 1.26 0.394 2.56 0.394 3.84s-0.138 2.58-0.394 3.84z" />
<glyph unicode="&#xe909;" glyph-name="customer" d="M512 637.529c88.905 0 161.234 72.329 161.234 161.236 0 88.905-72.329 161.234-161.234 161.234s-161.234-72.329-161.234-161.234c0-88.907 72.329-161.236 161.234-161.236zM512 927.319c70.885 0 128.553-57.669 128.553-128.553s-57.669-128.556-128.553-128.556-128.553 57.671-128.553 128.556 57.669 128.553 128.553 128.553zM512 572.168c130.314 0 237.311-101.725 245.745-229.94h-377.645c-9.024 0-16.34-7.314-16.34-16.34s7.316-16.34 16.34-16.34h394.523c9.024 0 16.34 7.314 16.34 16.34 0 153.82-125.142 278.962-278.964 278.962s-278.964-125.142-278.964-278.962c0-9.026 7.316-16.34 16.34-16.34h65.362c9.024 0 16.34 7.314 16.34 16.34s-7.316 16.34-16.34 16.34h-48.485c8.436 128.216 115.435 229.94 245.747 229.94zM305.91 137.070l-89.639 15.044-42.008 80.602c-2.815 5.401-8.399 8.789-14.491 8.789s-11.676-3.388-14.491-8.789l-42.008-80.602-89.639-15.044c-6.007-1.009-10.955-5.273-12.837-11.066-1.882-5.791-0.386-12.151 3.88-16.495l63.678-64.861-13.393-89.901c-0.898-6.026 1.63-12.048 6.558-15.628 4.924-3.582 11.436-4.122 16.887-1.407l81.362 40.518 81.362-40.518c2.305-1.146 4.8-1.712 7.281-1.712 3.392 0 6.763 1.055 9.606 3.122 4.928 3.58 7.456 9.602 6.558 15.628l-13.393 89.901 63.678 64.861c4.266 4.344 5.763 10.704 3.88 16.495-1.878 5.791-6.826 10.055-12.833 11.064zM222.167 61.736c-3.588-3.656-5.257-8.785-4.501-13.855l9.972-66.937-60.579 30.169c-4.586 2.285-9.981 2.285-14.569 0l-60.582-30.169 9.972 66.937c0.756 5.070-0.911 10.201-4.501 13.855l-47.413 48.294 66.743 11.203c5.055 0.85 9.419 4.020 11.787 8.565l31.278 60.015 31.278-60.015c2.368-4.545 6.732-7.715 11.787-8.565l66.743-11.203-47.413-48.294zM658.138 137.070l-89.639 15.044-42.008 80.602c-2.815 5.401-8.399 8.789-14.491 8.789s-11.676-3.388-14.491-8.789l-42.008-80.602-89.639-15.044c-6.007-1.009-10.955-5.273-12.837-11.066-1.882-5.791-0.386-12.151 3.88-16.495l63.678-64.861-13.39-89.901c-0.898-6.026 1.63-12.048 6.558-15.628 4.924-3.582 11.436-4.122 16.887-1.407l81.362 40.518 81.362-40.518c2.305-1.146 4.8-1.712 7.281-1.712 3.392 0 6.763 1.055 9.606 3.122 4.928 3.58 7.456 9.602 6.558 15.628l-13.39 89.901 63.678 64.861c4.266 4.344 5.763 10.704 3.88 16.495s-6.83 10.055-12.837 11.064zM574.394 61.736c-3.588-3.656-5.257-8.785-4.501-13.855l9.97-66.937-60.579 30.169c-2.294 1.142-4.789 1.712-7.283 1.712s-4.991-0.571-7.283-1.712l-60.579-30.169 9.97 66.937c0.756 5.070-0.911 10.201-4.501 13.855l-47.413 48.294 66.743 11.203c5.055 0.85 9.419 4.020 11.787 8.565l31.278 60.013 31.278-60.015c2.368-4.545 6.732-7.715 11.787-8.565l66.743-11.203-47.413-48.291zM1023.2 126.004c-1.882 5.793-6.828 10.057-12.837 11.066l-89.639 15.044-42.008 80.602c-2.815 5.401-8.399 8.789-14.491 8.789s-11.676-3.388-14.491-8.789l-42.008-80.602-89.639-15.044c-6.007-1.009-10.955-5.273-12.837-11.066-1.882-5.791-0.386-12.151 3.88-16.495l63.678-64.861-13.393-89.901c-0.898-6.026 1.63-12.048 6.558-15.628 4.924-3.582 11.436-4.122 16.887-1.407l81.362 40.518 81.362-40.518c2.305-1.146 4.8-1.712 7.281-1.712 3.392 0 6.763 1.055 9.606 3.122 4.928 3.58 7.456 9.602 6.558 15.628l-13.393 89.901 63.678 64.861c4.27 4.342 5.767 10.702 3.885 16.493zM926.622 61.736c-3.588-3.656-5.257-8.785-4.501-13.855l9.972-66.937-60.582 30.169c-2.294 1.142-4.789 1.712-7.283 1.712-2.497 0-4.991-0.571-7.283-1.712l-60.579-30.169 9.972 66.937c0.756 5.070-0.911 10.201-4.501 13.855l-47.413 48.294 66.743 11.203c5.055 0.85 9.419 4.020 11.787 8.565l31.278 60.015 31.278-60.015c2.368-4.545 6.732-7.715 11.787-8.565l66.743-11.203-47.416-48.294zM512 724.678c21.419 0 41.797 9.308 55.906 25.537 5.92 6.811 5.201 17.131-1.61 23.053-6.813 5.922-17.133 5.201-23.053-1.61-7.898-9.087-19.288-14.299-31.243-14.299s-23.343 5.212-31.243 14.299c-5.922 6.811-16.242 7.53-23.053 1.61-6.811-5.922-7.532-16.242-1.61-23.053 14.109-16.227 34.487-25.537 55.906-25.537z" />
<glyph unicode="&#xe90a;" glyph-name="computer" d="M1007.748 236.7h-991.495c-8.971 0-16.252-7.281-16.252-16.252 0-62.743 51.038-113.781 113.776-113.781h796.443c62.738 0 113.776 51.038 113.776 113.776 0.005 8.971-7.276 16.257-16.248 16.257zM910.224 139.176h-796.448c-39.248 0-72.086 27.967-79.638 65.014h955.719c-7.548-37.052-40.39-65.014-79.633-65.014zM926.476 789.333h-828.952c-8.971 0-16.252-7.281-16.252-16.252v-552.633c0-8.971 7.281-16.252 16.252-16.252h828.952c8.971 0 16.252 7.281 16.252 16.252v552.633c0 8.971-7.281 16.252-16.252 16.252zM910.224 236.7h-796.448v520.124h796.443v-520.124zM695.238 588.329c-3.086 3.762-7.695 5.948-12.571 5.948h-336.767l-5.048 20.195c-2.186 8.719-11.019 13.995-19.714 11.833-8.705-2.176-14.005-11.005-11.824-19.71l48.762-195.048c1.805-7.233 8.305-12.314 15.767-12.314h276.319c7.743 0 14.419 5.471 15.938 13.062l32.51 162.538c0.952 4.776-0.281 9.733-3.371 13.495zM636.838 431.748h-250.305l-32.51 130.033h308.819l-26.005-130.033zM471.367 366.729c0-17.955-14.555-32.51-32.51-32.51s-32.51 14.555-32.51 32.51c0 17.955 14.555 32.51 32.51 32.51s32.51-14.555 32.51-32.51zM617.652 366.729c0-17.955-14.555-32.51-32.51-32.51s-32.51 14.555-32.51 32.51c0 17.955 14.555 32.51 32.51 32.51s32.51-14.555 32.51-32.51zM666.414 513.014h-308.829c-8.971 0-16.252-7.281-16.252-16.252s7.281-16.252 16.252-16.252h308.824c8.971 0 16.252 7.281 16.252 16.252s-7.276 16.252-16.248 16.252zM325.081 626.795h-48.762c-8.971 0-16.252-7.281-16.252-16.252s7.281-16.252 16.252-16.252h48.762c8.971 0 16.252 7.281 16.252 16.252 0 8.967-7.281 16.252-16.252 16.252zM222.795 719.557c-6.348 6.348-16.638 6.348-22.981 0l-65.019-65.019c-6.348-6.348-6.348-16.638 0-22.981 3.176-3.176 7.329-4.762 11.49-4.762s8.314 1.586 11.49 4.762l65.019 65.014c6.343 6.348 6.343 16.638 0 22.986zM856.7 426.986c-6.348 6.348-16.638 6.348-22.981 0l-121.905-121.905c-6.348-6.348-6.348-16.638 0-22.981 3.176-3.176 7.329-4.762 11.49-4.762s8.314 1.586 11.49 4.762l121.905 121.905c6.343 6.343 6.343 16.633 0 22.981zM856.7 345.714c-6.348 6.348-16.638 6.348-22.981 0l-40.633-40.633c-6.348-6.348-6.348-16.638 0-22.981 3.176-3.176 7.329-4.762 11.49-4.762s8.314 1.586 11.49 4.762l40.633 40.633c6.343 6.343 6.343 16.633 0 22.981z" />
<glyph unicode="&#xe90b;" glyph-name="smartphone-call" d="M740.264 960h-456.528c-38.034 0-69.164-31.1-69.164-69.164v-885.643c0-38.064 31.13-69.193 69.164-69.193h456.528c38.034 0 69.164 31.071 69.164 69.164v885.672c0 38.064-31.13 69.164-69.164 69.164zM438.974 910.146h146.052c4.623 0 8.368-3.745 8.368-8.397 0-4.623-3.745-8.368-8.368-8.368h-146.052c-4.623 0-8.368 3.745-8.368 8.368 0 4.652 3.745 8.397 8.368 8.397zM512-29.418c-19.105 0-34.582 15.477-34.582 34.611s15.477 34.582 34.582 34.582 34.582-15.448 34.582-34.582-15.477-34.611-34.582-34.611zM761.3 64h-498.6v786.315h498.6v-786.315z" />
<glyph unicode="&#xe90c;" glyph-name="laptop" d="M1023.952 127.874c-0.010 0.15-0.008 0.298-0.022 0.448-0.054 0.594-0.14 1.176-0.262 1.746-0.012 0.056-0.030 0.112-0.044 0.168-0.118 0.524-0.264 1.036-0.436 1.536-0.046 0.134-0.096 0.264-0.146 0.396-0.168 0.454-0.358 0.896-0.568 1.326-0.036 0.076-0.060 0.154-0.098 0.23l-80.224 158.236v520.6c0 16.012-13.026 29.038-29.038 29.038h-802.232c-16.012 0-29.038-13.026-29.038-29.038v-520.596l-80.222-158.238c-0.038-0.076-0.062-0.154-0.098-0.23-0.21-0.43-0.398-0.872-0.568-1.324-0.050-0.132-0.1-0.264-0.146-0.398-0.17-0.502-0.318-1.016-0.436-1.54-0.012-0.054-0.030-0.108-0.042-0.162-0.122-0.572-0.208-1.154-0.262-1.748-0.014-0.148-0.014-0.298-0.022-0.446-0.020-0.312-0.048-0.62-0.048-0.936v-38.052c0-19.018 15.47-34.488 34.488-34.488h955.024c19.018 0 34.488 15.47 34.488 34.488v38.052c0 0.316-0.028 0.624-0.048 0.932zM111.846 811.594h800.308v-508.218h-800.308v508.218zM106.058 273.378h811.882l66.636-131.434h-329.56l-16.542 59.978c-3.368 12.21-14.564 20.738-27.23 20.738h-198.492c-12.666 0-23.864-8.528-27.23-20.736l-16.542-59.98h-329.558l66.636 131.434zM623.896 141.942h-223.792l13.986 50.716h195.82l13.986-50.716zM994 88.892c0-2.474-2.014-4.488-4.488-4.488h-955.024c-2.474 0-4.488 2.014-4.488 4.488v23.052h964v-23.052zM865.154 532.488c-8.286 0-15-6.714-15-15v-152.11h-676.308v152.11c0 8.286-6.714 15-15 15s-15-6.714-15-15v-158.588c0-12.97 10.55-23.522 23.522-23.522h689.266c12.97 0 23.522 10.55 23.522 23.522v158.588c-0.002 8.282-6.716 15-15.002 15zM856.632 779.594h-689.264c-12.97 0-23.522-10.55-23.522-23.522v-158.588c0-8.286 6.714-15 15-15s15 6.714 15 15v152.11h676.308v-152.11c0-8.286 6.714-15 15-15s15 6.714 15 15v158.588c0 12.974-10.55 23.522-23.522 23.522z" />
<glyph unicode="&#xe90d;" glyph-name="kitchen" d="M921.212 905.697h-818.424c-21.333 0-40.727-17.455-40.727-40.727v-775.758c0-23.273 17.455-40.727 40.727-40.727h21.333v-93.091c0-11.636 7.758-19.394 19.394-19.394h736.97c11.636 0 19.394 7.758 19.394 19.394v93.091h21.333c21.333 0 40.727 17.455 40.727 40.727v775.758c0 21.333-17.455 40.727-40.727 40.727zM861.091-25.212h-698.182v73.697h698.182v-73.697zM921.212 87.273h-818.424c0 0-1.939 0-1.939 1.939v686.545h822.303l-1.939-688.485zM925.091 814.545h-824.242l1.939 50.424h820.364c0 0 1.939 0 1.939-1.939v-48.485zM816.485 614.788h-608.97c-21.333 0-40.727-17.455-40.727-40.727v-397.576c0-21.333 17.455-40.727 40.727-40.727h610.909c21.333 0 40.727 17.455 40.727 40.727v397.576c-1.939 23.273-19.394 40.727-42.667 40.727zM205.576 174.545c0 0-1.939 0-1.939 1.939v397.576c0 0 0 1.939 1.939 1.939h610.909c0 0 1.939 0 1.939-1.939v-397.576l-612.848-1.939zM300.606 756.364c-34.909 0-62.061-27.152-62.061-62.061 0-32.97 27.152-62.061 62.061-62.061s62.061 27.152 62.061 62.061c0 34.909-27.152 62.061-62.061 62.061zM300.606 671.030c-13.576 0-23.273 9.697-23.273 23.273s9.697 23.273 23.273 23.273c13.576 0 23.273-9.697 23.273-23.273s-9.697-23.273-23.273-23.273zM723.394 756.364c-34.909 0-62.061-27.152-62.061-62.061 1.939-32.97 29.091-62.061 62.061-62.061 34.909 0 62.061 27.152 62.061 62.061s-27.152 62.061-62.061 62.061zM723.394 671.030c-13.576 0-23.273 9.697-23.273 23.273s11.636 23.273 23.273 23.273c13.576 0 23.273-9.697 23.273-23.273s-9.697-23.273-23.273-23.273zM403.394 960h-205.576c-11.636 0-19.394-7.758-19.394-19.394s7.758-19.394 19.394-19.394h205.576c11.636 0 19.394 7.758 19.394 19.394s-7.758 19.394-19.394 19.394zM826.182 960h-205.576c-11.636 0-19.394-7.758-19.394-19.394s9.697-19.394 19.394-19.394h205.576c11.636 0 19.394 7.758 19.394 19.394s-7.758 19.394-19.394 19.394zM651.636 543.030c-11.636 0-19.394-7.758-19.394-19.394v-46.545h-240.485v46.545c0 11.636-7.758 19.394-19.394 19.394s-19.394-7.758-19.394-19.394v-65.939c0-11.636 7.758-19.394 19.394-19.394h277.333c11.636 0 19.394 7.758 19.394 19.394v65.939c1.939 11.636-7.758 19.394-17.455 19.394z" />
<glyph unicode="&#xe90e;" glyph-name="house-outline" d="M855.2 457.618c-16.632 0-29.512-12.822-29.512-29.534v-403.419h-209.277v164.732c0 15.454-12.879 28.963-28.448 28.963h-151.317c-16.645 0-30.051-13.508-30.051-28.963v-164.732h-208.749v390.025c0 15.571-12.867 28.505-29.512 28.505-15.557 0-28.436-12.934-28.436-28.505v-419.56c0-15.569 12.879-28.505 28.436-28.505h268.312c15.557 0 28.436 12.936 28.436 28.505v164.734h93.367v-164.734c0-15.569 12.879-28.505 29.514-28.505h267.236c15.559 0 28.436 12.936 28.436 28.505v432.953c0 16.712-12.877 29.535-28.436 29.535zM1015.642 434.608l-232.884 233.878v159.467c0 16.6-13.417 29.42-30.051 29.42-15.569 0-28.446-12.822-28.446-29.42v-100.97l-192.104 193.239c-5.886 5.953-12.879 9.159-19.851 9.159-8.048 0-15.030-3.32-20.927-9.159l-482.409-482.408c-11.574-11.562-12.34-30.108 0-40.754 10.727-12.363 29.204-11.562 40.778 0l462.558 461.459 461.483-465.809c4.807-4.809 11.803-7.556 20.927-7.556 8.048 0 15.019 2.747 20.927 7.556 10.737 10.76 11.538 30.221 0 41.899z" />
<glyph unicode="&#xe90f;" glyph-name="umbrella" d="M1016.43 475.946c-40.124 230.438-234.26 407.162-472.43 421.142v32.912c0 16.568-13.432 30-30 30s-30-13.432-30-30v-32.908c-237.352-13.862-435.906-189.67-476.422-421.134-6.058-10.742-7.578-20.708-7.578-27.958 0-16.568 13.432-30 30-30 11.346 0 31.128 7.956 33.68 27.844 0.244 1.906 0.53 3.796 0.798 5.694 13.32 10.438 52.77 26.462 115.522 26.462 73.246 0 114.778-21.838 120.022-31.132 0.55-14.488 11.532-28.016 29.966-28.9 16.502-0.762 30.49 11.932 31.352 28.402 10.954 9.712 52.936 26.816 122.66 30.782v-421.152c0-66.168 53.832-120 120-120s120 53.832 120 120v30c0 16.568-13.432 30-30 30s-30-13.432-30-30v-30c0-33.084-26.916-60-60-60s-60 26.916-60 60v421.128c67.778-3.976 108.202-20.754 118.628-30.29 0.004-0.102 0.010-0.202 0.016-0.304 0.75-16.076 14.018-28.602 29.944-28.602 18.906 0 30.82 13.92 31.39 28.934 5.244 9.296 46.776 31.134 120.022 31.134 62.754 0 102.204-16.024 115.522-26.462 0.25-1.76 0.516-3.512 0.746-5.28 2.446-18.954 21.516-28.258 33.732-28.258 16.568 0 30 13.432 30 30 0 7.248-1.52 17.208-7.57 27.946zM306.256 514.372c-36.978 17.162-84.858 23.628-126.256 23.628-35.768 0-70.084-4.676-98.782-13.318 47.208 147.326 168.804 260.328 318.82 298.93-56.418-82.54-83.562-209.546-93.782-309.24zM514 538c-47.37 0-103.134-5.954-147.25-22.050 22.104 201.96 92.812 322.050 147.25 322.050 56.44 0 122.352-126.448 143.274-321.35-39.33 14.496-91.414 21.35-143.274 21.35zM844 538c-41.222 0-89.080-6.41-126.17-23.588-9.858 98.774-35.81 226.498-90.822 309.146 148.464-38.656 268.942-151.642 315.85-298.898-28.714 8.654-63.058 13.34-98.858 13.34z" />
<glyph unicode="&#xe910;" glyph-name="light-bulb" d="M677.2 687.8c-47.2 45.4-109.2 68.8-174.8 66.4-125.8-5-228.4-111.4-228.8-237.4-0.2-55.8 19.4-110.2 55.2-153 51.6-62 80-140.2 80-220.4 0 0-5.4-36.8 20.8-36.8h164.8c26.8 0 20.8 36.8 20.8 36.8 0 78.4 28.8 156 83.4 224.4 33.8 42.6 51.8 93.8 51.8 148.2 0 65.4-26 126.6-73.2 171.8zM666 393.8c-59.4-74.4-91.2-159.2-92.4-245.6h-123.2c-1.2 88.2-32.8 174-89.6 242.2-29.4 35.4-45.6 80.2-45.4 126.2 0.4 104 85 191.8 188.8 196 54.2 2 105.4-17.4 144.2-54.8 39-37.4 60.4-87.8 60.4-141.8-0.2-45-14.8-87.2-42.8-122.2zM786.4 824.4c-8.2 8.2-21.4 8.2-29.4 0l-50.8-50.8c-8.2-8.2-8.2-21.4 0-29.4s21.4-8.2 29.4 0l50.8 50.8c8.2 8 8.2 21.2 0 29.4zM595.2 78.2h-166.4c-11.6 0-20.8-9.4-20.8-20.8 0-11.6 9.4-20.8 20.8-20.8h166.4c11.6 0 20.8 9.4 20.8 20.8s-9.4 20.8-20.8 20.8zM563.8-0.2h-103.4c-11.6 0-20.8-9.4-20.8-20.8 0-11.6 9.4-20.8 20.8-20.8h103.4c11.6 0 20.8 9.4 20.8 20.8s-9.4 20.8-20.8 20.8zM512 824.6c11.6 0 20.8 9.4 20.8 20.8v71.8c0 11.6-9.4 20.8-20.8 20.8s-20.8-9.4-20.8-20.8v-71.8c0-11.6 9.2-20.8 20.8-20.8zM317.8 744c8.2 8.2 8.2 21.4 0 29.4l-50.8 50.8c-8.2 8.2-21.4 8.2-29.4 0s-8.2-21.4 0-29.4l50.8-50.8c8.2-8 21.4-8 29.4 0zM879.2 570.8h-71.8c-11.6 0-20.8-9.4-20.8-20.8s9.4-20.8 20.8-20.8h71.8c11.6 0 20.8 9.4 20.8 20.8s-9.4 20.8-20.8 20.8zM216.6 570.8h-71.8c-11.6 0-20.8-9.4-20.8-20.8s9.4-20.8 20.8-20.8h71.8c11.6 0 20.8 9.4 20.8 20.8s-9.2 20.8-20.8 20.8z" />
<glyph unicode="&#xe911;" glyph-name="photo-camera" d="M942.097 695.467h-145.476l-68.267 170.667h-432.708l-68.267-170.667h-22.579v85.333h-102.4v-85.333h-20.497c-45.175 0-81.903-36.727-81.903-81.903v-501.214c0-45.483 37.001-82.483 82.483-82.483h859.034c45.483 0 82.483 37.001 82.483 82.483v501.214c0 45.175-36.727 81.903-81.903 81.903zM136.533 746.667h34.133v-51.2h-34.133v51.2zM989.867 112.35c0-26.675-21.692-48.35-48.35-48.35h-859.034c-26.658 0-48.35 21.692-48.35 48.35v501.214c0 26.334 21.436 47.77 47.77 47.77h168.585l68.267 170.667h386.492l68.267-170.667h168.585c26.334 0 47.77-21.436 47.77-47.77v-501.214zM512 712.533c-169.387 0-307.2-137.813-307.2-307.2s137.813-307.2 307.2-307.2 307.2 137.813 307.2 307.2-137.813 307.2-307.2 307.2zM512 132.267c-150.562 0-273.067 122.505-273.067 273.067s122.505 273.067 273.067 273.067 273.067-122.505 273.067-273.067-122.505-273.067-273.067-273.067zM512 610.133c-112.93 0-204.8-91.87-204.8-204.8s91.87-204.8 204.8-204.8 204.8 91.87 204.8 204.8-91.87 204.8-204.8 204.8zM512 234.667c-94.106 0-170.667 76.561-170.667 170.667s76.561 170.667 170.667 170.667 170.667-76.561 170.667-170.667-76.561-170.667-170.667-170.667zM887.467 627.2c-37.649 0-68.267-30.618-68.267-68.267s30.618-68.267 68.267-68.267 68.267 30.618 68.267 68.267-30.618 68.267-68.267 68.267zM887.467 524.8c-18.825 0-34.133 15.309-34.133 34.133s15.309 34.133 34.133 34.133 34.133-15.309 34.133-34.133-15.309-34.133-34.133-34.133z" />
<glyph unicode="&#xe912;" glyph-name="car" d="M271.766 289.744c-7.714 4.466-17.592 1.834-22.064-5.884-3.27-5.646-9.344-9.154-15.854-9.154-10.090 0-18.298 8.208-18.298 18.298s8.208 18.298 18.298 18.298c8.916 0 16.146 7.228 16.146 16.146s-7.228 16.146-16.146 16.146c-27.894 0-50.588-22.694-50.588-50.588s22.694-50.588 50.588-50.588c17.994 0 34.776 9.68 43.802 25.264 4.466 7.716 1.834 17.594-5.884 22.062zM874.526 289.758c-7.716 4.462-17.596 1.83-22.060-5.89-3.27-5.65-9.348-9.16-15.862-9.16-10.090 0-18.298 8.208-18.298 18.298s8.208 18.298 18.298 18.298c8.916 0 16.146 7.228 16.146 16.146s-7.228 16.146-16.146 16.146c-27.894 0-50.588-22.694-50.588-50.588s22.694-50.588 50.588-50.588c18 0 34.79 9.688 43.81 25.28 4.468 7.716 1.83 17.592-5.888 22.058zM1023.794 314.144c-2.48 22.184-8.78 43.072-18.136 62.106 7.942 8.804 12.242 21.632 11.998 36.6-0.264 16.030-5.654 33.328-14.786 47.462-15.434 23.89-37.33 33.484-57.162 33.558-58.336 48.034-177.060 55.482-226.144 56.422-6.708 0.13-12.77 4-15.822 10.102l-57.534 115.068c-14.496 28.992-43.638 47.004-76.054 47.004h-43.534c-88.954 0-169.79-15.006-240.266-44.602-60.026-25.206-113.038-61.148-157.564-106.83-88.864-91.16-118.838-193.294-127.6-232.974-3.292-14.906 0.318-30.3 9.906-42.236 9.68-12.050 24.104-18.964 39.568-18.964h64.828c7.912-58.266 57.954-103.33 118.354-103.33s110.444 45.064 118.354 103.33h366.050c7.912-58.266 57.952-103.33 118.354-103.33 60.4 0 110.444 45.064 118.354 103.33h35.564c9.492 0 18.572 4.068 24.918 11.162 6.37 7.12 9.414 16.64 8.354 26.122zM936.244 460.038c10.59 3.854 27.292 1.646 39.5-17.25 5.86-9.070 9.456-20.46 9.62-30.47 0.020-1.19-0.028-2.328-0.108-3.436-14.946 19.156-33.522 35.248-54.616 47.388 1.902 1.706 3.922 3.156 5.604 3.768zM233.848 205.82c-48.074 0-87.184 39.11-87.184 87.184s39.11 87.184 87.184 87.184 87.184-39.11 87.184-87.184c0-48.074-39.11-87.184-87.184-87.184zM836.604 205.82c-48.074 0-87.184 39.11-87.184 87.184s39.11 87.184 87.184 87.184c48.074 0 87.184-39.11 87.184-87.184 0.002-48.074-39.11-87.184-87.184-87.184zM991.374 309.548c-0.356-0.398-0.714-0.398-0.848-0.398h-35.566c-7.912 58.266-57.952 103.33-118.354 103.33-60.4 0-110.444-45.064-118.354-103.33h-366.048c-7.912 58.266-57.952 103.33-118.354 103.33-60.4 0-110.444-45.064-118.354-103.33h-64.83c-2.078 0-4.104 0.346-6.008 0.998 36.156 84.602 109.794 138.926 189.19 138.926 62.036 0 118.192-36.732 143.064-93.582 3.574-8.17 13.094-11.894 21.262-8.32s11.894 13.092 8.32 21.262c-30.012 68.602-97.78 112.93-172.646 112.93-72.66 0-140.854-38.338-186.75-101.632 16.228 44.994 47.412 109.876 104.81 168.764 91.636 94.012 217.708 141.68 374.706 141.68h43.534c20.106 0 38.18-11.17 47.174-29.154l57.534-115.068c8.438-16.88 25.334-27.586 44.086-27.946 20.984-0.404 62.57-2.266 105.308-10.232 35.132-6.548 63.816-15.998 84.546-27.716-3.276-2.94-6.278-6.228-8.79-9.652-19.864 7.078-41.204 10.96-63.4 10.96-74.906 0-142.688-44.358-172.682-113.012-3.572-8.172 0.16-17.688 8.33-21.258 8.172-3.57 17.688 0.162 21.258 8.33 24.854 56.89 81.024 93.65 143.092 93.65 79.592 0 146.27-59.55 155.096-138.522 0.044-0.376-0.066-0.716-0.326-1.008zM644.786 540.466l-47.192 110.114c-5.266 12.286-17.304 20.222-30.67 20.222h-57.53c-116.398 0-206.122-43.154-247.586-80.108-12.896-11.494-17.234-29.406-11.052-45.634 6.272-16.462 21.664-27.1 39.216-27.1h339.976c5.428 0 10.492 2.728 13.478 7.256 2.988 4.534 3.498 10.264 1.36 15.25zM424.362 550.254h-134.394c-6.158 0-8.476 4.826-9.040 6.306-0.678 1.78-1.804 6.32 2.362 10.032 28.194 25.126 78.728 50.392 141.070 63.238v-79.576zM456.652 550.254v84.928c16.978 2.14 34.612 3.332 52.742 3.332h57.53c0.43 0 0.818-0.256 0.988-0.652l37.546-87.608h-148.806z" />
</font>
</defs>
</svg>
